<svg width="40" height="40" viewBox="0 0 40 40" fill="none" xmlns="http://www.w3.org/2000/svg">
    <g clip-path="url(#clip0)">
        <path fill-rule="evenodd" clip-rule="evenodd" d="M17.3837 19.2881C24.512 21.1506 26.7708 21.2768 33.3654 22.0607L32.9114 17.8709C32.7741 16.6219 32.8383 16.2299 33.4628 15.6165C34.4483 14.6466 35.9363 13.9003 36.1157 10.9926C32.9091 11.812 32.2493 12.3213 29.4812 10.6139C21.2101 5.51393 16.8919 9.72369 14.0464 11.8274C11.4378 10.8774 9.12584 12.7376 8.74943 15.2644C8.3885 17.7003 8.38623 18.5021 8.38623 22.0607C10.3106 20.1784 11.6924 19.5229 13.805 18.9294C15.2998 18.5108 15.931 18.9072 17.3837 19.2881Z" fill="#0E1D2C"/>
        <path fill-rule="evenodd" clip-rule="evenodd" d="M23.9871 38.5875C28.684 36.8447 32.6035 31.9927 33.2657 27.7342C33.3321 27.3157 33.3654 26.9037 33.3654 26.5007V22.0606C26.7707 21.2767 24.5121 21.1504 17.3837 19.288C15.931 18.9072 15.2999 18.5107 13.8051 18.9293C11.6925 19.5228 10.3107 20.1783 8.38635 22.0606V26.5007C8.38635 26.9037 8.41956 27.3156 8.48377 27.7342C9.14815 31.9927 13.0677 36.8447 17.7624 38.5875C18.8939 39.0083 19.8837 39.2187 20.8758 39.2187C21.8657 39.2187 22.8578 39.0083 23.9871 38.5875ZM17.3526 33.7378C17.3526 31.7912 18.9293 30.2145 20.8758 30.2145C22.8201 30.2145 24.399 31.7912 24.399 33.7378C24.399 34.4508 23.8144 35.0355 23.0991 35.0355H18.6524C17.9372 35.0355 17.3526 34.4509 17.3526 33.7378Z" fill="#FFF4E9"/>
        <path fill-rule="evenodd" clip-rule="evenodd" d="M8.3863 26.5008V22.0607H6.7609C3.92199 22.0607 4.18551 27.7343 7.40528 27.7343H8.48372C8.4195 27.3157 8.3863 26.9038 8.3863 26.5008Z" fill="#FFF4E9"/>
        <path fill-rule="evenodd" clip-rule="evenodd" d="M34.3465 27.7343C37.5663 27.7343 37.8298 22.0607 34.9886 22.0607H33.3654V26.5008C33.3654 26.9038 33.3322 27.3157 33.2657 27.7343H34.3465Z" fill="#FFF4E9"/>
        <path fill-rule="evenodd" clip-rule="evenodd" d="M23.0993 35.0355C23.8145 35.0355 24.3992 34.4509 24.3992 33.7378C24.3992 31.7912 22.8203 30.2145 20.876 30.2145C18.9295 30.2145 17.3528 31.7912 17.3528 33.7378C17.3528 34.4508 17.9374 35.0355 18.6527 35.0355H23.0993Z" fill="#FF8A73"/>
        <path d="M8.45565 5.81987C8.56831 6.19221 8.93745 6.42495 9.32206 6.36573L9.99089 6.26299L10.4682 7.84745C10.57 8.18542 10.8802 8.40354 11.216 8.40354C11.2906 8.40354 11.3665 8.39268 11.4417 8.3701C11.8548 8.24557 12.0888 7.80979 11.9643 7.39667L11.2911 5.16229C11.1789 4.78956 10.8092 4.55596 10.4244 4.61549L9.75471 4.71838L9.18706 2.84268C9.06206 2.42971 8.62573 2.19627 8.213 2.3212C7.80003 2.4462 7.56659 2.88229 7.69151 3.29526L8.45565 5.81987Z" fill="#FF8A73"/>
        <path d="M5.34927 9.80238L5.89614 9.4016L7.0545 10.5882C7.20755 10.745 7.41052 10.8238 7.61364 10.8238C7.81044 10.8238 8.00739 10.75 8.15926 10.6016C8.46801 10.3002 8.47395 9.80558 8.17255 9.49676L6.54044 7.8248C6.26864 7.54644 5.83348 7.51042 5.51966 7.74035L4.97302 8.14097L3.60653 6.73995C3.3052 6.43112 2.81067 6.42495 2.50177 6.72612C2.19286 7.02738 2.18669 7.52199 2.48802 7.83097L4.32825 9.71769C4.59997 9.99629 5.03536 10.0325 5.34927 9.80238Z" fill="#FF8A73"/>
        <path d="M15.0706 3.99274L15.6789 4.28914L15.1699 5.86492C15.0372 6.27555 15.2626 6.71594 15.6732 6.84852C15.7529 6.8743 15.8339 6.88656 15.9135 6.88656C16.2433 6.88656 16.5499 6.67602 16.6568 6.34524L17.3743 4.12406C17.4939 3.75383 17.3229 3.35203 16.9731 3.18164L16.3653 2.88547L16.9688 1.02211C17.1018 0.611642 16.8768 0.171095 16.4663 0.0381259C16.0557 -0.0946085 15.6152 0.130157 15.4823 0.540704L14.6697 3.04977C14.5496 3.42008 14.7206 3.82227 15.0706 3.99274Z" fill="#FF8A73"/>
        <path d="M18.6526 35.8167H23.0993C24.2468 35.8167 25.1804 34.8841 25.1804 33.7378C25.1804 31.3642 23.2495 29.4332 20.876 29.4332C18.5025 29.4332 16.5715 31.3643 16.5715 33.7378C16.5715 34.8841 17.505 35.8167 18.6526 35.8167ZM20.8759 30.9957C22.3878 30.9957 23.6179 32.2258 23.6179 33.7378C23.6179 34.0177 23.3804 34.2542 23.0992 34.2542H18.6525C18.3714 34.2542 18.1339 34.0177 18.1339 33.7378C18.134 32.2258 19.364 30.9957 20.8759 30.9957Z" fill="#0E1D2C"/>
        <path d="M28.1143 28.7061C28.3954 28.7061 28.6672 28.5539 28.8068 28.2878C29.0072 27.9056 28.8601 27.4334 28.4779 27.2329L26.7449 26.3236L28.4779 25.4143C28.8601 25.2139 29.0072 24.7416 28.8068 24.3595C28.6063 23.9774 28.134 23.8304 27.752 24.0307L24.7005 25.6317C24.4433 25.7667 24.2822 26.0331 24.2822 26.3235C24.2822 26.614 24.4433 26.8804 24.7005 27.0153L27.752 28.6164C27.8679 28.6773 27.9919 28.7061 28.1143 28.7061Z" fill="#0E1D2C"/>
        <path d="M12.9426 28.2875C13.0823 28.5538 13.3539 28.7061 13.6352 28.7061C13.7575 28.7061 13.8815 28.6773 13.9973 28.6166L17.0511 27.0155C17.3083 26.8806 17.4695 26.6141 17.4695 26.3236C17.4695 26.0331 17.3083 25.7666 17.0511 25.6318L13.9973 24.0307C13.6152 23.8304 13.1429 23.9776 12.9426 24.3598C12.7423 24.742 12.8897 25.2142 13.2718 25.4145L15.0058 26.3237L13.2718 27.2329C12.8897 27.4331 12.7423 27.9053 12.9426 28.2875Z" fill="#0E1D2C"/>
        <path d="M29.1396 34.8305C28.7537 34.6374 28.2844 34.7938 28.0915 35.1799L28.0893 35.1844C27.8963 35.5702 28.0538 36.0374 28.4397 36.2303C28.5514 36.2861 28.67 36.3125 28.787 36.3125C29.0745 36.3125 29.3519 36.1531 29.489 35.8787C29.6819 35.4927 29.5255 35.0234 29.1396 34.8305Z" fill="#0E1D2C"/>
        <path d="M37.1037 22.3831C36.6055 21.6714 35.8543 21.2795 34.9886 21.2795H34.0665L33.688 17.7855C33.5594 16.6167 33.646 16.5317 34.0108 16.1733C34.1586 16.0278 34.3262 15.8817 34.5036 15.727C35.4415 14.909 36.7259 13.7888 36.8955 11.0407C36.9108 10.7914 36.8061 10.5498 36.6137 10.3906C36.4212 10.2315 36.1643 10.174 35.9223 10.2357C35.5356 10.3345 35.1808 10.4301 34.8678 10.5145C32.5847 11.1297 32.0425 11.2759 29.8912 9.94892C26.3292 7.75252 23.1349 6.99064 20.1258 7.62009C17.5707 8.15447 15.7157 9.57291 14.2251 10.7127C14.1133 10.7981 14.0047 10.8813 13.8986 10.9617C12.6829 10.6326 11.4523 10.791 10.3926 11.4217C9.1142 12.1824 8.21107 13.576 7.97654 15.1499C7.63381 17.4628 7.60717 18.3633 7.60514 21.2796H6.76092C5.89568 21.2796 5.14498 21.6715 4.64709 22.3831C4.24084 22.9637 4.01709 23.7438 4.01709 24.5797C4.01709 26.4878 5.20459 28.5157 7.40529 28.5157H7.83701C8.82381 32.953 12.8441 37.5958 17.4901 39.3201C18.738 39.7841 19.8138 40.0002 20.8758 40.0002C21.9389 40.0002 23.0142 39.784 24.258 39.3206C24.9687 39.0581 25.6921 38.7139 26.4081 38.2978C26.7812 38.081 26.9078 37.6028 26.691 37.2297C26.4742 36.8567 25.9961 36.7301 25.623 36.9467C24.9844 37.3178 24.343 37.6235 23.7144 37.8557C22.6487 38.2528 21.7467 38.4377 20.8758 38.4377C20.0055 38.4377 19.1026 38.2528 18.0341 37.8554C13.3108 36.1024 9.16748 30.7965 9.16748 26.501V22.3937C10.8838 20.7692 12.1241 20.2133 14.0157 19.6819C15.0019 19.4057 15.4667 19.5438 16.3925 19.8188C16.6256 19.8881 16.89 19.9666 17.1861 20.0442C23.5385 21.7038 26.0776 21.9988 31.1362 22.5864C31.5958 22.6398 32.0772 22.6957 32.584 22.7553V26.501C32.584 26.849 32.556 27.2075 32.5012 27.5737C32.4975 27.5913 32.4951 27.6094 32.4926 27.6274C32.2511 29.17 31.5351 30.8465 30.4162 32.4575C30.1701 32.8119 30.2579 33.2987 30.6122 33.5449C30.7481 33.6392 30.9035 33.6845 31.0572 33.6845C31.3045 33.6845 31.5479 33.5673 31.6996 33.3488C32.7997 31.7649 33.5548 30.1033 33.9115 28.5157H34.3465C36.5469 28.5157 37.7344 26.4883 37.7344 24.5806C37.7343 23.7442 37.5104 22.9638 37.1037 22.3831ZM7.40529 26.9531C6.06576 26.9531 5.57951 25.5336 5.57951 24.5796C5.57951 24.0686 5.70623 23.5945 5.92725 23.2788C6.13287 22.9849 6.40561 22.842 6.76084 22.842H7.60498V26.5008C7.60498 26.6507 7.60936 26.8016 7.61748 26.9531H7.40529ZM31.3165 21.0341C26.3305 20.4549 23.8276 20.1642 17.5819 18.5324C17.3108 18.4613 17.0702 18.3899 16.8375 18.3208C16.2021 18.132 15.6501 17.9681 14.9795 17.9681C14.5754 17.9681 14.1282 18.0277 13.5939 18.1773C11.898 18.6537 10.6213 19.1706 9.17006 20.3199C9.18029 18.1731 9.23467 17.3207 9.52233 15.3795C9.68834 14.2653 10.3125 13.2878 11.1919 12.7644C11.7365 12.4403 12.6274 12.1421 13.7792 12.5616C14.0255 12.6513 14.3003 12.6114 14.511 12.4557C14.7256 12.2971 14.9437 12.1303 15.1745 11.9538C17.9987 9.79431 21.8667 6.8365 29.0712 11.2788C31.7605 12.9376 32.8573 12.6742 35.1787 12.0489C34.869 13.3352 34.1887 13.9285 33.4767 14.5494C33.2896 14.7125 33.0962 14.8812 32.9154 15.0592C32.0214 15.9374 31.9912 16.6492 32.1347 17.9549L32.483 21.1699C32.0785 21.1227 31.6905 21.0776 31.3165 21.0341ZM34.3464 26.9531H34.1336C34.1419 26.801 34.1466 26.6502 34.1466 26.5008V22.842H34.9886C35.3446 22.842 35.6178 22.985 35.8237 23.2792C36.0449 23.5952 36.1718 24.0694 36.1718 24.5805C36.1718 25.5342 35.6857 26.9531 34.3464 26.9531Z" fill="#0E1D2C"/>
    </g>
    <defs>
        <clipPath id="clip0">
            <rect width="40" height="40" fill="white"/>
        </clipPath>
    </defs>
</svg>
